<?xml version="1.0" encoding="utf-8"?>
<!-- Generator: Adobe Illustrator 16.0.0, SVG Export Plug-In . SVG Version: 6.00 Build 0)  -->
<!DOCTYPE svg PUBLIC "-//W3C//DTD SVG 1.1//EN" "http://www.w3.org/Graphics/SVG/1.1/DTD/svg11.dtd">
<svg version="1.1" xmlns="http://www.w3.org/2000/svg" xmlns:xlink="http://www.w3.org/1999/xlink" x="0px" y="0px"
	 width="841.89px" height="595.28px" viewBox="0 0 841.89 595.28" enable-background="new 0 0 841.89 595.28" xml:space="preserve">
<g id="Layer_1" display="none">
	<g display="inline">
		<linearGradient id="SVGID_1_" gradientUnits="userSpaceOnUse" x1="28.0894" y1="237.126" x2="28.0893" y2="371.7391">
			<stop  offset="0" style="stop-color:#30358C"/>
			<stop  offset="0.6386" style="stop-color:#337CBF"/>
			<stop  offset="1" style="stop-color:#337CBF"/>
		</linearGradient>
		<path fill="url(#SVGID_1_)" d="M7.904,226.957l40.37,2.349v152.859H7.904V226.957z"/>
		<linearGradient id="SVGID_2_" gradientUnits="userSpaceOnUse" x1="73.0884" y1="239.2866" x2="62.3547" y2="289.6524">
			<stop  offset="0" style="stop-color:#20A3DD"/>
			<stop  offset="1" style="stop-color:#2857A4"/>
		</linearGradient>
		<path fill="url(#SVGID_2_)" d="M82.655,226.957H57.526H55.53H7.904c4.755,21.094,17.116,30.891,32.442,32.919l0,0h32.965
			c9.751,0,17.655,7.901,17.655,17.649c0,9.748-7.904,17.649-17.655,17.649H48.274v23.968l40.571-0.108
			c10.57,0,20.724-4.15,28.266-11.558c9.47-7.535,14.988-18.976,14.988-31.076C132.099,249.095,109.958,226.957,82.655,226.957z"/>
		<linearGradient id="SVGID_3_" gradientUnits="userSpaceOnUse" x1="7.1826" y1="243.6084" x2="48.2737" y2="243.6084">
			<stop  offset="0" style="stop-color:#FFFFFF"/>
			<stop  offset="1" style="stop-color:#5380C1"/>
		</linearGradient>
		<path fill="url(#SVGID_3_)" d="M7.904,226.957c1.13,3.975,2.713,7.784,4.577,11.415c1.934,3.596,4.159,7.032,6.878,10.041
			c2.69,3.038,5.937,5.524,9.481,7.437c3.527,2.013,7.537,2.931,11.541,3.645l-0.034-0.003c2.645,0.115,5.283,0.209,7.927,0.384
			c-2.645,0.175-5.283,0.269-7.927,0.384H40.33l-0.018-0.002c-4.106-0.507-8.368-1.144-12.074-3.238
			c-3.711-1.933-7.233-4.428-9.918-7.68c-2.741-3.175-5.047-6.714-6.745-10.522C9.849,235.03,8.541,231.047,7.904,226.957z"/>
	</g>
	<g display="inline">
		<linearGradient id="SVGID_4_" gradientUnits="userSpaceOnUse" x1="563.5889" y1="395.0313" x2="590.1324" y2="318.9557">
			<stop  offset="0.5291" style="stop-color:#0D71B9"/>
			<stop  offset="0.6061" style="stop-color:#116DB4"/>
			<stop  offset="0.7081" style="stop-color:#1A63A8"/>
			<stop  offset="0.8242" style="stop-color:#235296"/>
			<stop  offset="0.9498" style="stop-color:#283C7F"/>
			<stop  offset="1" style="stop-color:#283477"/>
		</linearGradient>
		<polygon fill="url(#SVGID_4_)" points="598.835,355.641 589.106,382.482 546.466,382.482 572.484,315.022 		"/>
		<linearGradient id="SVGID_5_" gradientUnits="userSpaceOnUse" x1="622.3096" y1="234.9424" x2="587.1268" y2="331.8493">
			<stop  offset="0" style="stop-color:#27367B"/>
			<stop  offset="0.1025" style="stop-color:#25498D"/>
			<stop  offset="0.2125" style="stop-color:#1F5A9F"/>
			<stop  offset="0.3216" style="stop-color:#1766AD"/>
			<stop  offset="0.4281" style="stop-color:#106EB6"/>
			<stop  offset="0.5291" style="stop-color:#0D71B9"/>
			<stop  offset="0.6061" style="stop-color:#116DB4"/>
			<stop  offset="0.7081" style="stop-color:#1A63A8"/>
			<stop  offset="0.8242" style="stop-color:#235296"/>
			<stop  offset="0.9498" style="stop-color:#283C7F"/>
			<stop  offset="1" style="stop-color:#283477"/>
		</linearGradient>
		<path fill="url(#SVGID_5_)" d="M606.166,227.274l20.124,52.628l-17.291,47.621c-2.02-0.223-13.784-1.723-21.802-12.322
			c-7.279-9.62-6.436-20.077-6.192-22.408C589.391,270.953,597.78,249.114,606.166,227.274z"/>
		<linearGradient id="SVGID_6_" gradientUnits="userSpaceOnUse" x1="578.3945" y1="321.2656" x2="715.3765" y2="366.7684">
			<stop  offset="0" style="stop-color:#3C73B9"/>
			<stop  offset="1" style="stop-color:#30358C"/>
		</linearGradient>
		<path fill="url(#SVGID_6_)" d="M570.052,321.336c-7.491,19.556,9.35,34.243,30.292,34.291c0.225,0.003,0.447,0.003,0.674,0.003
			c27.073,0.059,54.18-0.137,54.18-0.137l-11.17-30.633h-32.314c-16.839,0-30.737-14.177-30.737-31.015c0-0.341,0-0.711,0.029-1.052
			L570.052,321.336z"/>
		<linearGradient id="SVGID_7_" gradientUnits="userSpaceOnUse" x1="643.8975" y1="324.5879" x2="644.2061" y2="325.2308">
			<stop  offset="0" style="stop-color:#0D71B9"/>
			<stop  offset="1" style="stop-color:#30358C"/>
		</linearGradient>
		<path fill="url(#SVGID_7_)" d="M643.49,324.831c0.337,0.029,0.71,0.029,1.077,0.029h-1.077V324.831z"/>
		<linearGradient id="SVGID_8_" gradientUnits="userSpaceOnUse" x1="633.9883" y1="299.9219" x2="588.0822" y2="318.9633">
			<stop  offset="0" style="stop-color:#FFFFFF"/>
			<stop  offset="1" style="stop-color:#5380C1"/>
		</linearGradient>
		<path fill="url(#SVGID_8_)" d="M644.027,324.86c-6.814,0.259-13.634,0.44-20.451,0.527c-3.41,0.08-6.816,0.06-10.227,0.086
			c-1.679-0.026-3.433,0.124-5.183-0.166c-1.731-0.218-3.424-0.617-5.1-1.077c-6.63-1.978-12.842-6.004-16.708-11.827
			c-1.079-1.372-1.715-3.011-2.523-4.537c-0.689-1.58-1.171-3.252-1.709-4.877c-0.287-1.701-0.648-3.385-0.86-5.077l-0.262-5.119
			c0.474,6.774,2.263,13.58,6.278,18.961c3.889,5.44,9.78,9.262,16.197,11.069c1.604,0.461,3.23,0.869,4.876,1.096
			c1.625,0.298,3.298,0.173,5.018,0.22c3.407,0.042,6.812,0.029,10.216,0.124C630.401,324.373,637.213,324.579,644.027,324.86z"/>
		<linearGradient id="SVGID_9_" gradientUnits="userSpaceOnUse" x1="629.0645" y1="232.0664" x2="685.4531" y2="374.7292">
			<stop  offset="0" style="stop-color:#20A3DD"/>
			<stop  offset="1" style="stop-color:#3269B1"/>
		</linearGradient>
		<polygon fill="url(#SVGID_9_)" points="708.609,382.482 650.168,227.274 606.166,227.274 665.52,382.482 		"/>
		<linearGradient id="SVGID_10_" gradientUnits="userSpaceOnUse" x1="605.4805" y1="304.8779" x2="666.2056" y2="304.8779">
			<stop  offset="0" style="stop-color:#FFFFFF"/>
			<stop  offset="1" style="stop-color:#5380C1"/>
		</linearGradient>
		<path fill="url(#SVGID_10_)" d="M606.166,227.274c5.196,12.84,10.323,25.703,15.364,38.604l14.995,38.741l14.681,38.861
			c4.857,12.969,9.62,25.971,14.313,39.003c-5.2-12.836-10.33-25.699-15.365-38.6l-14.998-38.74l-14.678-38.864
			C615.624,253.31,610.861,240.306,606.166,227.274z"/>
	</g>
	<g display="inline">
		<radialGradient id="SVGID_11_" cx="179.6064" cy="290.354" r="60.215" gradientUnits="userSpaceOnUse">
			<stop  offset="0" style="stop-color:#30358C"/>
			<stop  offset="0.6386" style="stop-color:#337CBF"/>
			<stop  offset="1" style="stop-color:#337CBF"/>
		</radialGradient>
		<path fill="url(#SVGID_11_)" d="M258.451,382.148H154.974V226.94h103.477v33.655H195.34v26.494h60.494v33.657H195.34v27.743
			h63.111V382.148z"/>
		<linearGradient id="SVGID_12_" gradientUnits="userSpaceOnUse" x1="172.1494" y1="293.584" x2="179.2595" y2="226.75">
			<stop  offset="0" style="stop-color:#30358C"/>
			<stop  offset="0.6386" style="stop-color:#337CBF"/>
			<stop  offset="1" style="stop-color:#337CBF"/>
		</linearGradient>
		<polygon fill="url(#SVGID_12_)" points="195.246,304.546 154.974,279.334 154.974,226.94 195.246,226.94 		"/>
		<linearGradient id="SVGID_13_" gradientUnits="userSpaceOnUse" x1="173.665" y1="363.9209" x2="176.7459" y2="289.9788">
			<stop  offset="0" style="stop-color:#30358C"/>
			<stop  offset="0.6386" style="stop-color:#337CBF"/>
			<stop  offset="1" style="stop-color:#337CBF"/>
		</linearGradient>
		<polygon fill="url(#SVGID_13_)" points="195.246,368.059 154.974,342.849 154.974,290.455 195.246,290.455 		"/>
		<linearGradient id="SVGID_14_" gradientUnits="userSpaceOnUse" x1="157.7163" y1="272.833" x2="268.6256" y2="328.7616">
			<stop  offset="0" style="stop-color:#20A3DD"/>
			<stop  offset="1" style="stop-color:#3269B1"/>
		</linearGradient>
		<path fill="url(#SVGID_14_)" d="M154.974,290.132c0,0,4.118,31.021,40.363,30.611l60.497,0.003v-33.657l-60.497-0.002
			c-36.245,0.41-40.363-30.61-40.363-30.61V290.132z"/>
		<linearGradient id="SVGID_15_" gradientUnits="userSpaceOnUse" x1="154.9741" y1="350.0488" x2="258.4507" y2="350.0488">
			<stop  offset="0" style="stop-color:#20A3DD"/>
			<stop  offset="1" style="stop-color:#3269B1"/>
		</linearGradient>
		<path fill="url(#SVGID_15_)" d="M195.337,348.524c-36.245,0.411-40.363-30.609-40.363-30.609v15.453v18.203v30.577l35.511-0.131
			c1.558,0.111,3.157,0.183,4.852,0.163l63.113-0.089v-33.655L195.337,348.524z"/>
		<linearGradient id="SVGID_16_" gradientUnits="userSpaceOnUse" x1="154.2456" y1="333.2305" x2="195.3383" y2="333.2305">
			<stop  offset="0" style="stop-color:#FFFFFF"/>
			<stop  offset="1" style="stop-color:#5380C1"/>
		</linearGradient>
		<path fill="url(#SVGID_16_)" d="M154.974,317.915c1.087,4.488,2.902,8.766,5.368,12.587c2.481,3.797,5.499,7.293,9.247,9.854
			c3.677,2.607,7.771,4.707,12.189,5.88c1.072,0.41,2.185,0.652,3.315,0.849l3.372,0.671c2.266,0.342,4.565,0.458,6.872,0.769
			c-2.306,0.023-4.635,0.049-6.958-0.052l-3.461-0.476c-1.162-0.135-2.314-0.317-3.437-0.668l-3.386-0.936
			c-1.102-0.397-2.166-0.909-3.252-1.358l-1.612-0.71l-1.522-0.896c-0.99-0.637-2.085-1.118-2.987-1.887
			c-3.825-2.766-6.991-6.405-9.34-10.455C157.045,327.029,155.467,322.524,154.974,317.915z"/>
		<linearGradient id="SVGID_17_" gradientUnits="userSpaceOnUse" x1="154.2456" y1="271.793" x2="195.3383" y2="271.793">
			<stop  offset="0" style="stop-color:#FFFFFF"/>
			<stop  offset="1" style="stop-color:#5380C1"/>
		</linearGradient>
		<path fill="url(#SVGID_17_)" d="M154.974,256.477c1.087,4.489,2.902,8.765,5.368,12.587c2.481,3.8,5.499,7.294,9.247,9.855
			c3.677,2.605,7.771,4.706,12.189,5.879c1.072,0.409,2.185,0.654,3.315,0.849l3.372,0.671c2.266,0.341,4.565,0.459,6.872,0.769
			c-2.306,0.023-4.635,0.05-6.958-0.052l-3.461-0.476c-1.162-0.135-2.314-0.318-3.437-0.668l-3.386-0.935
			c-1.102-0.398-2.166-0.909-3.252-1.36l-1.612-0.707l-1.522-0.899c-0.99-0.636-2.085-1.118-2.987-1.888
			c-3.825-2.764-6.991-6.403-9.34-10.453C157.045,265.592,155.467,261.086,154.974,256.477z"/>
	</g>
	<g display="inline">
		<linearGradient id="SVGID_18_" gradientUnits="userSpaceOnUse" x1="346.2319" y1="320.6904" x2="345.047" y2="389.8929">
			<stop  offset="0" style="stop-color:#30358C"/>
			<stop  offset="0.6386" style="stop-color:#337CBF"/>
			<stop  offset="1" style="stop-color:#337CBF"/>
		</linearGradient>
		<path fill="url(#SVGID_18_)" d="M325.698,300.57h40.368v81.244h-40.368V300.57z"/>
		<linearGradient id="SVGID_19_" gradientUnits="userSpaceOnUse" x1="349.749" y1="317.9355" x2="291.7406" y2="218.966">
			<stop  offset="0" style="stop-color:#30358C"/>
			<stop  offset="0.6386" style="stop-color:#337CBF"/>
			<stop  offset="1" style="stop-color:#337CBF"/>
		</linearGradient>
		<polygon fill="url(#SVGID_19_)" points="278.012,227.274 329.194,319.812 364.74,309.409 318.264,227.274 		"/>
		<linearGradient id="SVGID_20_" gradientUnits="userSpaceOnUse" x1="377.6729" y1="308.0371" x2="333.001" y2="245.8517">
			<stop  offset="0" style="stop-color:#337CBF"/>
			<stop  offset="0.8057" style="stop-color:#3FA5DD"/>
			<stop  offset="1" style="stop-color:#42AFE4"/>
		</linearGradient>
		<path fill="url(#SVGID_20_)" d="M414.198,227.274h-40.252l-23.888,54.641c0,0-12.561,27.728-18.426,32.018
			c-3.095,2.267-5.229,0.405-5.229,0.405c-0.149-0.101-0.26-0.194-0.321-0.253c-0.128-0.195-0.255-0.393-0.384-0.591l0.127,53.976
			c15.524,10.306,28.41-29.015,38.308-48.056c3.045-5.859,5.498-10.507,8.661-16.302L414.198,227.274z"/>
		<linearGradient id="SVGID_21_" gradientUnits="userSpaceOnUse" x1="325.0552" y1="271.2773" x2="374.6228" y2="271.2773">
			<stop  offset="0" style="stop-color:#FFFFFF"/>
			<stop  offset="1" style="stop-color:#5380C1"/>
		</linearGradient>
		<path fill="url(#SVGID_21_)" d="M373.946,227.274c-5.816,14.871-12.011,29.592-18.61,44.136
			c-3.267,7.285-6.674,14.511-10.27,21.651c-1.798,3.567-3.628,7.12-5.578,10.619c-0.995,1.738-2.003,3.471-3.098,5.156
			c-1.104,1.683-2.183,3.378-3.751,4.827l0.029-0.026c-0.789,0.684-1.644,1.214-2.636,1.483c-0.979,0.271-2.063,0.206-2.948-0.243
			l0.025,0.008c-0.697-0.243-1.127-0.806-1.411-1.391c0.348,0.542,0.881,1.018,1.46,1.134h0.008l0.021,0.008
			c1.801,0.628,3.622-0.425,4.841-1.63l0.029-0.024c1.336-1.306,2.406-3.036,3.429-4.71c1.033-1.688,1.985-3.437,2.923-5.185
			c1.896-3.496,3.694-7.054,5.452-10.626c3.496-7.161,6.849-14.398,10.228-21.622L373.946,227.274z"/>
		<linearGradient id="SVGID_22_" gradientUnits="userSpaceOnUse" x1="325.1821" y1="342.2627" x2="366.7395" y2="342.2627">
			<stop  offset="0" style="stop-color:#FFFFFF"/>
			<stop  offset="1" style="stop-color:#5380C1"/>
		</linearGradient>
		<path fill="url(#SVGID_22_)" d="M366.065,315.048c-3.537,9.233-7.617,18.249-12.155,27.045c-2.254,4.406-4.689,8.724-7.328,12.925
			c-2.664,4.172-5.473,8.345-9.304,11.674l0.029-0.027c-1.259,1.13-2.673,2.007-4.274,2.494c-1.591,0.484-3.364,0.434-4.857-0.267
			l0.03,0.012c-1.149-0.358-1.893-1.299-2.382-2.269c0.565,0.925,1.439,1.732,2.438,1.974l0.017,0.002l0.014,0.006
			c1.474,0.557,3.095,0.477,4.535-0.073c1.425-0.565,2.771-1.443,3.84-2.511l0.029-0.028c1.735-1.682,3.28-3.563,4.683-5.567
			c1.437-1.981,2.761-4.044,4.062-6.129c2.526-4.212,4.897-8.526,7.255-12.854C357.283,332.734,361.696,323.913,366.065,315.048z"/>
	</g>
	<g display="inline">
		<linearGradient id="SVGID_23_" gradientUnits="userSpaceOnUse" x1="451.2676" y1="237.1104" x2="451.2676" y2="371.7226">
			<stop  offset="0" style="stop-color:#30358C"/>
			<stop  offset="0.6386" style="stop-color:#337CBF"/>
			<stop  offset="1" style="stop-color:#337CBF"/>
		</linearGradient>
		<path fill="url(#SVGID_23_)" d="M431.084,226.941l40.367,2.349v152.858h-40.367V226.941z"/>
		<linearGradient id="SVGID_24_" gradientUnits="userSpaceOnUse" x1="496.2695" y1="239.2715" x2="485.5355" y2="289.6388">
			<stop  offset="0" style="stop-color:#20A3DD"/>
			<stop  offset="1" style="stop-color:#2857A4"/>
		</linearGradient>
		<path fill="url(#SVGID_24_)" d="M505.833,226.941h-25.13h-1.993h-47.626c4.753,21.094,17.113,30.891,32.44,32.918l0,0h32.967
			c9.748,0,17.652,7.901,17.652,17.648c0,9.751-7.904,17.649-17.652,17.649h-25.04v23.971l40.574-0.109
			c10.57,0,20.721-4.152,28.266-11.559c9.47-7.536,14.988-18.974,14.988-31.077C555.279,249.079,533.139,226.941,505.833,226.941z"
			/>
		<linearGradient id="SVGID_25_" gradientUnits="userSpaceOnUse" x1="430.3623" y1="243.5928" x2="471.4509" y2="243.5928">
			<stop  offset="0" style="stop-color:#FFFFFF"/>
			<stop  offset="1" style="stop-color:#5380C1"/>
		</linearGradient>
		<path fill="url(#SVGID_25_)" d="M431.084,226.941c1.128,3.975,2.711,7.783,4.578,11.415c1.93,3.596,4.155,7.032,6.875,10.041
			c2.689,3.037,5.936,5.523,9.48,7.437c3.531,2.013,7.537,2.931,11.544,3.645l-0.037-0.003c2.644,0.115,5.285,0.209,7.927,0.384
			c-2.642,0.175-5.283,0.27-7.927,0.385h-0.015l-0.021-0.003c-4.104-0.507-8.367-1.144-12.074-3.238
			c-3.71-1.933-7.232-4.428-9.916-7.68c-2.742-3.175-5.048-6.714-6.746-10.522C433.028,235.015,431.719,231.031,431.084,226.941z"/>
	</g>
	<g display="inline">
		<linearGradient id="SVGID_26_" gradientUnits="userSpaceOnUse" x1="767.5088" y1="321.4941" x2="766.3238" y2="390.697">
			<stop  offset="0" style="stop-color:#30358C"/>
			<stop  offset="0.6386" style="stop-color:#337CBF"/>
			<stop  offset="1" style="stop-color:#337CBF"/>
		</linearGradient>
		<path fill="url(#SVGID_26_)" d="M746.975,301.375h40.365v81.244h-40.365V301.375z"/>
		<linearGradient id="SVGID_27_" gradientUnits="userSpaceOnUse" x1="771.0244" y1="318.7393" x2="713.0175" y2="219.7723">
			<stop  offset="0" style="stop-color:#30358C"/>
			<stop  offset="0.6386" style="stop-color:#337CBF"/>
			<stop  offset="1" style="stop-color:#337CBF"/>
		</linearGradient>
		<polygon fill="url(#SVGID_27_)" points="699.29,228.078 750.472,320.616 786.015,310.214 739.54,228.078 		"/>
		<linearGradient id="SVGID_28_" gradientUnits="userSpaceOnUse" x1="798.9492" y1="308.8418" x2="754.2773" y2="246.6564">
			<stop  offset="0" style="stop-color:#337CBF"/>
			<stop  offset="0.8057" style="stop-color:#3FA5DD"/>
			<stop  offset="1" style="stop-color:#42AFE4"/>
		</linearGradient>
		<path fill="url(#SVGID_28_)" d="M835.474,228.078h-40.251l-23.889,54.641c0,0-12.563,27.727-18.427,32.018
			c-3.093,2.266-5.228,0.405-5.228,0.405c-0.147-0.101-0.262-0.195-0.32-0.254c-0.131-0.194-0.256-0.392-0.385-0.59l0.126,53.976
			c15.523,10.306,28.409-29.015,38.308-48.056c3.045-5.86,5.497-10.507,8.662-16.303L835.474,228.078z"/>
		<linearGradient id="SVGID_29_" gradientUnits="userSpaceOnUse" x1="746.332" y1="272.0815" x2="795.8997" y2="272.0815">
			<stop  offset="0" style="stop-color:#FFFFFF"/>
			<stop  offset="1" style="stop-color:#5380C1"/>
		</linearGradient>
		<path fill="url(#SVGID_29_)" d="M795.223,228.078c-5.817,14.871-12.011,29.592-18.61,44.136
			c-3.266,7.285-6.676,14.511-10.271,21.651c-1.799,3.567-3.627,7.121-5.576,10.619c-0.996,1.739-2.004,3.472-3.098,5.157
			c-1.105,1.683-2.183,3.378-3.753,4.827l0.028-0.026c-0.788,0.683-1.643,1.213-2.633,1.483c-0.98,0.27-2.063,0.206-2.951-0.244
			l0.028,0.009c-0.699-0.243-1.128-0.806-1.412-1.391c0.346,0.542,0.88,1.018,1.459,1.133h0.009l0.02,0.009
			c1.804,0.628,3.624-0.425,4.843-1.63l0.028-0.025c1.336-1.306,2.405-3.035,3.429-4.71c1.033-1.688,1.985-3.436,2.923-5.184
			c1.896-3.496,3.694-7.054,5.453-10.627c3.496-7.161,6.848-14.398,10.228-21.621L795.223,228.078z"/>
		<linearGradient id="SVGID_30_" gradientUnits="userSpaceOnUse" x1="746.458" y1="343.0664" x2="788.0139" y2="343.0664">
			<stop  offset="0" style="stop-color:#FFFFFF"/>
			<stop  offset="1" style="stop-color:#5380C1"/>
		</linearGradient>
		<path fill="url(#SVGID_30_)" d="M787.34,315.853c-3.535,9.232-7.616,18.249-12.153,27.045c-2.255,4.406-4.69,8.724-7.326,12.924
			c-2.667,4.173-5.473,8.346-9.306,11.675l0.028-0.028c-1.259,1.131-2.673,2.007-4.273,2.494c-1.592,0.484-3.362,0.435-4.857-0.266
			l0.031,0.011c-1.149-0.357-1.894-1.298-2.383-2.269c0.564,0.926,1.438,1.733,2.438,1.974l0.017,0.003l0.014,0.006
			c1.476,0.557,3.096,0.476,4.534-0.074c1.426-0.564,2.77-1.443,3.842-2.511l0.027-0.027c1.734-1.682,3.282-3.563,4.686-5.567
			c1.436-1.981,2.761-4.045,4.058-6.129c2.528-4.212,4.899-8.526,7.257-12.855C778.561,333.539,782.973,324.718,787.34,315.853z"/>
	</g>
</g>
<g id="Layer_3" display="none">
	<g display="inline">
		<linearGradient id="SVGID_31_" gradientUnits="userSpaceOnUse" x1="243.6353" y1="166.1851" x2="243.6353" y2="241.2954">
			<stop  offset="0" style="stop-color:#30358C"/>
			<stop  offset="0.6386" style="stop-color:#337CBF"/>
			<stop  offset="1" style="stop-color:#337CBF"/>
		</linearGradient>
		<path fill="url(#SVGID_31_)" d="M236.763,160.511l13.745,1.311v85.292h-13.745V160.511z"/>
		<linearGradient id="SVGID_32_" gradientUnits="userSpaceOnUse" x1="259.6377" y1="168.0635" x2="253.86" y2="195.174">
			<stop  offset="0" style="stop-color:#20A3DD"/>
			<stop  offset="1" style="stop-color:#2857A4"/>
		</linearGradient>
		<path fill="url(#SVGID_32_)" d="M262.215,160.511h-8.557h-0.678h-16.217c1.619,11.77,5.828,17.236,11.046,18.368l0,0h11.225
			c3.319,0,6.011,4.409,6.011,9.848c0,5.439-2.691,9.848-6.011,9.848h-8.526v13.374l13.815-0.061c3.6,0,7.056-2.316,9.624-6.449
			c3.225-4.204,5.104-10.587,5.104-17.339C279.051,172.863,271.513,160.511,262.215,160.511z"/>
		<linearGradient id="SVGID_33_" gradientUnits="userSpaceOnUse" x1="236.5171" y1="169.8027" x2="250.5078" y2="169.8027">
			<stop  offset="0" style="stop-color:#FFFFFF"/>
			<stop  offset="1" style="stop-color:#5380C1"/>
		</linearGradient>
		<path fill="url(#SVGID_33_)" d="M236.763,160.511c0.384,2.218,0.923,4.343,1.559,6.369c0.658,2.007,1.416,3.924,2.341,5.603
			c0.916,1.694,2.021,3.082,3.228,4.15c1.203,1.123,2.566,1.635,3.931,2.033l-0.012-0.002c0.9,0.064,1.799,0.117,2.699,0.215
			c-0.899,0.098-1.799,0.15-2.699,0.215h-0.005l-0.007-0.002c-1.397-0.283-2.85-0.639-4.111-1.807
			c-1.264-1.079-2.463-2.471-3.377-4.285c-0.934-1.771-1.719-3.747-2.297-5.872C237.425,165.016,236.979,162.793,236.763,160.511z"
			/>
	</g>
	<g display="inline">
		
			<radialGradient id="SVGID_34_" cx="376.3823" cy="341.584" r="20.5041" gradientTransform="matrix(0.014 -0.9999 0.9999 0.014 -34.377 559.3174)" gradientUnits="userSpaceOnUse">
			<stop  offset="0" style="stop-color:#30358C"/>
			<stop  offset="0.6386" style="stop-color:#337CBF"/>
			<stop  offset="1" style="stop-color:#337CBF"/>
		</radialGradient>
		<path fill="url(#SVGID_34_)" d="M344.085,161.359l-0.494,35.231l-52.844-0.742l0.494-35.23l11.459,0.161l-0.302,21.487
			l9.021,0.127l0.289-20.597l11.459,0.161l-0.289,20.597l9.446,0.132l0.302-21.487L344.085,161.359z"/>
		
			<linearGradient id="SVGID_35_" gradientUnits="userSpaceOnUse" x1="373.8423" y1="342.6846" x2="376.2632" y2="319.9277" gradientTransform="matrix(0.014 -0.9999 0.9999 0.014 -34.377 559.3174)">
			<stop  offset="0" style="stop-color:#30358C"/>
			<stop  offset="0.6386" style="stop-color:#337CBF"/>
			<stop  offset="1" style="stop-color:#337CBF"/>
		</linearGradient>
		<polygon fill="url(#SVGID_35_)" points="317.361,182.508 308.585,196.1 290.747,195.849 290.939,182.138 		"/>
		
			<linearGradient id="SVGID_36_" gradientUnits="userSpaceOnUse" x1="374.3589" y1="366.6348" x2="375.408" y2="341.4564" gradientTransform="matrix(0.014 -0.9999 0.9999 0.014 -34.377 559.3174)">
			<stop  offset="0" style="stop-color:#30358C"/>
			<stop  offset="0.6386" style="stop-color:#337CBF"/>
			<stop  offset="1" style="stop-color:#337CBF"/>
		</linearGradient>
		<polygon fill="url(#SVGID_36_)" points="338.986,182.812 330.21,196.402 312.371,196.152 312.563,182.44 		"/>
		
			<linearGradient id="SVGID_37_" gradientUnits="userSpaceOnUse" x1="368.9287" y1="335.6182" x2="406.6949" y2="354.6627" gradientTransform="matrix(0.014 -0.9999 0.9999 0.014 -34.377 559.3174)">
			<stop  offset="0" style="stop-color:#20A3DD"/>
			<stop  offset="1" style="stop-color:#3269B1"/>
		</linearGradient>
		<path fill="url(#SVGID_37_)" d="M312.262,196.15c0,0,10.581-1.254,10.615-13.596l0.29-20.598l-11.459-0.161l-0.29,20.598
			c-0.033,12.343-10.614,13.597-10.614,13.597L312.262,196.15z"/>
		
			<linearGradient id="SVGID_38_" gradientUnits="userSpaceOnUse" x1="367.9946" y1="361.9121" x2="403.2295" y2="361.9121" gradientTransform="matrix(0.014 -0.9999 0.9999 0.014 -34.377 559.3174)">
			<stop  offset="0" style="stop-color:#20A3DD"/>
			<stop  offset="1" style="stop-color:#3269B1"/>
		</linearGradient>
		<path fill="url(#SVGID_38_)" d="M332.335,182.687c-0.033,12.343-10.615,13.597-10.615,13.597l5.261,0.074l6.198,0.087
			l10.411,0.146l0.125-12.092c0.046-0.529,0.078-1.074,0.079-1.651l0.271-21.488l-11.458-0.161L332.335,182.687z"/>
		
			<linearGradient id="SVGID_39_" gradientUnits="userSpaceOnUse" x1="367.7471" y1="356.1846" x2="381.7401" y2="356.1846" gradientTransform="matrix(0.014 -0.9999 0.9999 0.014 -34.377 559.3174)">
			<stop  offset="0" style="stop-color:#FFFFFF"/>
			<stop  offset="1" style="stop-color:#5380C1"/>
		</linearGradient>
		<path fill="url(#SVGID_39_)" d="M321.721,196.283c1.534-0.349,2.998-0.946,4.312-1.768c1.305-0.826,2.509-1.837,3.399-3.101
			c0.905-1.24,1.64-2.624,2.06-4.122c0.145-0.363,0.233-0.741,0.305-1.125l0.245-1.146c0.127-0.77,0.178-1.552,0.294-2.336
			c-0.003,0.785-0.005,1.578-0.051,2.369l-0.179,1.176c-0.051,0.396-0.119,0.787-0.244,1.167l-0.334,1.148
			c-0.141,0.373-0.32,0.733-0.479,1.102l-0.249,0.545l-0.313,0.515c-0.221,0.334-0.391,0.704-0.657,1.007
			c-0.959,1.29-2.214,2.351-3.604,3.131C324.834,195.622,323.292,196.138,321.721,196.283z"/>
		
			<linearGradient id="SVGID_40_" gradientUnits="userSpaceOnUse" x1="367.7466" y1="335.2646" x2="381.7391" y2="335.2646" gradientTransform="matrix(0.014 -0.9999 0.9999 0.014 -34.377 559.3174)">
			<stop  offset="0" style="stop-color:#FFFFFF"/>
			<stop  offset="1" style="stop-color:#5380C1"/>
		</linearGradient>
		<path fill="url(#SVGID_40_)" d="M300.803,195.99c1.533-0.349,2.998-0.946,4.311-1.769c1.306-0.826,2.51-1.837,3.399-3.101
			c0.905-1.239,1.64-2.624,2.06-4.122c0.145-0.363,0.233-0.74,0.305-1.125l0.245-1.145c0.127-0.77,0.178-1.553,0.294-2.336
			c-0.003,0.785-0.005,1.578-0.051,2.368l-0.178,1.177c-0.052,0.395-0.12,0.786-0.244,1.167l-0.334,1.148
			c-0.141,0.373-0.32,0.732-0.479,1.101l-0.249,0.546l-0.313,0.514c-0.222,0.334-0.391,0.705-0.657,1.008
			c-0.96,1.289-2.214,2.35-3.604,3.13C303.916,195.328,302.375,195.844,300.803,195.99z"/>
	</g>
	<g display="inline">
		<linearGradient id="SVGID_41_" gradientUnits="userSpaceOnUse" x1="369.9282" y1="214.4805" x2="369.2759" y2="252.573">
			<stop  offset="0" style="stop-color:#30358C"/>
			<stop  offset="0.6386" style="stop-color:#337CBF"/>
			<stop  offset="1" style="stop-color:#337CBF"/>
		</linearGradient>
		<path fill="url(#SVGID_41_)" d="M362.862,203.333h13.745v44.866h-13.745V203.333z"/>
		<linearGradient id="SVGID_42_" gradientUnits="userSpaceOnUse" x1="374.3496" y1="209.1514" x2="347.0105" y2="162.5075">
			<stop  offset="0" style="stop-color:#30358C"/>
			<stop  offset="0.6386" style="stop-color:#337CBF"/>
			<stop  offset="1" style="stop-color:#337CBF"/>
		</linearGradient>
		<polygon fill="url(#SVGID_42_)" points="346.625,162.856 364.052,213.96 376.156,208.215 360.331,162.856 		"/>
		<linearGradient id="SVGID_43_" gradientUnits="userSpaceOnUse" x1="383.9258" y1="209.8838" x2="356.9653" y2="172.3536">
			<stop  offset="0" style="stop-color:#337CBF"/>
			<stop  offset="0.8057" style="stop-color:#3FA5DD"/>
			<stop  offset="1" style="stop-color:#42AFE4"/>
		</linearGradient>
		<path fill="url(#SVGID_43_)" d="M392.997,162.856h-13.706l-8.134,30.175c0,0-4.277,15.312-6.274,17.681
			c-1.054,1.252-1.78,0.224-1.78,0.224c-0.051-0.056-0.089-0.107-0.109-0.14c-0.044-0.107-0.087-0.216-0.131-0.326l0.043,29.808
			c5.286,5.692,9.674-16.023,13.044-26.538c1.037-3.235,1.872-5.802,2.949-9.002L392.997,162.856z"/>
		<linearGradient id="SVGID_44_" gradientUnits="userSpaceOnUse" x1="362.6431" y1="187.1563" x2="379.5211" y2="187.1563">
			<stop  offset="0" style="stop-color:#FFFFFF"/>
			<stop  offset="1" style="stop-color:#5380C1"/>
		</linearGradient>
		<path fill="url(#SVGID_44_)" d="M379.291,162.856c-1.98,8.212-4.09,16.341-6.337,24.373c-1.112,4.022-2.272,8.015-3.497,11.956
			c-0.612,1.971-1.235,3.934-1.899,5.865c-0.339,0.96-0.682,1.916-1.055,2.848c-0.376,0.931-0.743,1.866-1.277,2.666l0.01-0.015
			c-0.269,0.377-0.56,0.671-0.897,0.819c-0.333,0.148-0.702,0.114-1.004-0.135l0.009,0.005c-0.237-0.135-0.384-0.446-0.48-0.769
			c0.118,0.299,0.3,0.563,0.497,0.626h0.003l0.007,0.005c0.613,0.346,1.233-0.235,1.648-0.899l0.01-0.015
			c0.455-0.721,0.819-1.676,1.168-2.601c0.352-0.933,0.676-1.897,0.995-2.863c0.646-1.931,1.258-3.895,1.856-5.869
			c1.19-3.953,2.332-7.95,3.482-11.939L379.291,162.856z"/>
		<linearGradient id="SVGID_45_" gradientUnits="userSpaceOnUse" x1="362.686" y1="226.3574" x2="376.8365" y2="226.3574">
			<stop  offset="0" style="stop-color:#FFFFFF"/>
			<stop  offset="1" style="stop-color:#5380C1"/>
		</linearGradient>
		<path fill="url(#SVGID_45_)" d="M376.607,211.329c-1.204,5.098-2.594,10.077-4.139,14.935c-0.768,2.433-1.597,4.818-2.495,7.137
			c-0.907,2.304-1.863,4.608-3.168,6.447l0.01-0.016c-0.429,0.624-0.91,1.108-1.455,1.378c-0.542,0.268-1.146,0.239-1.654-0.147
			l0.011,0.006c-0.392-0.196-0.645-0.717-0.812-1.253c0.192,0.512,0.49,0.957,0.83,1.09l0.006,0.002l0.005,0.004
			c0.502,0.307,1.054,0.263,1.544-0.041c0.485-0.313,0.943-0.797,1.308-1.387l0.01-0.016c0.591-0.928,1.117-1.968,1.595-3.074
			c0.489-1.094,0.94-2.233,1.383-3.385c0.86-2.326,1.668-4.708,2.471-7.099C373.617,221.096,375.12,216.225,376.607,211.329z"/>
	</g>
	<g display="inline">
		<linearGradient id="SVGID_46_" gradientUnits="userSpaceOnUse" x1="293.7744" y1="251.8438" x2="302.8127" y2="225.9395">
			<stop  offset="0.5291" style="stop-color:#0D71B9"/>
			<stop  offset="0.6061" style="stop-color:#116DB4"/>
			<stop  offset="0.7081" style="stop-color:#1A63A8"/>
			<stop  offset="0.8242" style="stop-color:#235296"/>
			<stop  offset="0.9498" style="stop-color:#283C7F"/>
			<stop  offset="1" style="stop-color:#283477"/>
		</linearGradient>
		<polygon fill="url(#SVGID_46_)" points="305.775,238.43 302.462,247.57 287.943,247.57 296.803,224.6 		"/>
		<linearGradient id="SVGID_47_" gradientUnits="userSpaceOnUse" x1="313.769" y1="197.333" x2="301.7896" y2="230.329">
			<stop  offset="0" style="stop-color:#27367B"/>
			<stop  offset="0.1025" style="stop-color:#25498D"/>
			<stop  offset="0.2125" style="stop-color:#1F5A9F"/>
			<stop  offset="0.3216" style="stop-color:#1766AD"/>
			<stop  offset="0.4281" style="stop-color:#106EB6"/>
			<stop  offset="0.5291" style="stop-color:#0D71B9"/>
			<stop  offset="0.6061" style="stop-color:#116DB4"/>
			<stop  offset="0.7081" style="stop-color:#1A63A8"/>
			<stop  offset="0.8242" style="stop-color:#235296"/>
			<stop  offset="0.9498" style="stop-color:#283C7F"/>
			<stop  offset="1" style="stop-color:#283477"/>
		</linearGradient>
		<path fill="url(#SVGID_47_)" d="M308.271,194.721l6.853,17.92l-5.887,16.215c-0.688-0.076-4.693-0.586-7.425-4.195
			c-2.478-3.275-2.192-6.836-2.108-7.631C302.559,209.594,305.414,202.156,308.271,194.721z"/>
		<linearGradient id="SVGID_48_" gradientUnits="userSpaceOnUse" x1="298.8135" y1="226.7256" x2="345.4569" y2="242.2197">
			<stop  offset="0" style="stop-color:#3C73B9"/>
			<stop  offset="1" style="stop-color:#30358C"/>
		</linearGradient>
		<path fill="url(#SVGID_48_)" d="M295.974,226.748c-2.552,6.66,3.183,11.66,10.313,11.678c0.077,0,0.154,0,0.23,0
			c9.219,0.02,18.448-0.047,18.448-0.047l-3.803-10.43h-11.005c-5.732,0-10.465-4.828-10.465-10.561c0-0.117,0-0.242,0.01-0.359
			L295.974,226.748z"/>
		<linearGradient id="SVGID_49_" gradientUnits="userSpaceOnUse" x1="321.1187" y1="227.8574" x2="321.2234" y2="228.0755">
			<stop  offset="0" style="stop-color:#0D71B9"/>
			<stop  offset="1" style="stop-color:#30358C"/>
		</linearGradient>
		<path fill="url(#SVGID_49_)" d="M320.979,227.939c0.115,0.01,0.242,0.01,0.367,0.01h-0.367V227.939z"/>
		<linearGradient id="SVGID_50_" gradientUnits="userSpaceOnUse" x1="317.7451" y1="219.457" x2="302.1126" y2="225.9412">
			<stop  offset="0" style="stop-color:#FFFFFF"/>
			<stop  offset="1" style="stop-color:#5380C1"/>
		</linearGradient>
		<path fill="url(#SVGID_50_)" d="M321.163,227.949c-2.32,0.088-4.643,0.15-6.964,0.18c-1.161,0.027-2.322,0.02-3.482,0.029
			c-0.572-0.01-1.17,0.041-1.765-0.057c-0.59-0.074-1.166-0.211-1.737-0.367c-2.256-0.674-4.373-2.045-5.688-4.027
			c-0.368-0.467-0.586-1.025-0.861-1.545c-0.234-0.537-0.396-1.107-0.582-1.66c-0.097-0.58-0.221-1.152-0.293-1.729l-0.088-1.744
			c0.16,2.307,0.771,4.625,2.139,6.457c1.322,1.852,3.328,3.154,5.515,3.77c0.546,0.156,1.1,0.295,1.661,0.373
			c0.552,0.102,1.121,0.059,1.708,0.074c1.159,0.014,2.319,0.01,3.479,0.043C316.523,227.783,318.843,227.854,321.163,227.949z"/>
		<linearGradient id="SVGID_51_" gradientUnits="userSpaceOnUse" x1="316.0669" y1="196.3525" x2="335.2678" y2="244.9308">
			<stop  offset="0" style="stop-color:#20A3DD"/>
			<stop  offset="1" style="stop-color:#3269B1"/>
		</linearGradient>
		<polygon fill="url(#SVGID_51_)" points="343.154,247.57 323.254,194.721 308.271,194.721 328.48,247.57 		"/>
		<linearGradient id="SVGID_52_" gradientUnits="userSpaceOnUse" x1="308.0371" y1="221.1455" x2="328.7141" y2="221.1455">
			<stop  offset="0" style="stop-color:#FFFFFF"/>
			<stop  offset="1" style="stop-color:#5380C1"/>
		</linearGradient>
		<path fill="url(#SVGID_52_)" d="M308.271,194.721c1.77,4.371,3.516,8.752,5.231,13.145l5.106,13.191l4.999,13.232
			c1.653,4.416,3.275,8.844,4.873,13.281c-1.771-4.371-3.517-8.752-5.231-13.145l-5.107-13.191l-4.997-13.232
			C311.491,203.586,309.869,199.158,308.271,194.721z"/>
	</g>
</g>
<g id="Layer_2">
	<g>
		
			<linearGradient id="SVGID_53_" gradientUnits="userSpaceOnUse" x1="674.0195" y1="164.3784" x2="674.0195" y2="544.59" gradientTransform="matrix(-1 0 0 -1 1107.8516 617.5742)">
			<stop  offset="0" style="stop-color:#30358C"/>
			<stop  offset="0.6386" style="stop-color:#337CBF"/>
			<stop  offset="1" style="stop-color:#337CBF"/>
		</linearGradient>
		<path fill="url(#SVGID_53_)" d="M490.836,481.918l-114.007-6.631V43.536h114.007V481.918z"/>
		
			<linearGradient id="SVGID_54_" gradientUnits="userSpaceOnUse" x1="801.127" y1="170.4834" x2="770.8091" y2="312.7441" gradientTransform="matrix(-1 0 0 -1 1107.8516 617.5742)">
			<stop  offset="0" style="stop-color:#20A3DD"/>
			<stop  offset="1" style="stop-color:#2857A4"/>
		</linearGradient>
		<path fill="url(#SVGID_54_)" d="M279.72,481.918h70.977h5.622h134.518c-13.414-59.575-48.327-87.248-91.615-92.975l0,0h-93.127
			c-27.521,0-49.851-22.322-49.851-49.848c0-27.542,22.33-49.85,49.851-49.85h70.735v-67.708l-114.605,0.309
			c-29.858,0-58.519,11.727-79.84,32.644c-26.748,21.29-42.334,53.596-42.334,87.781
			C140.049,419.392,202.586,481.918,279.72,481.918z"/>
		
			<linearGradient id="SVGID_55_" gradientUnits="userSpaceOnUse" x1="614.9785" y1="182.688" x2="731.0236" y2="182.688" gradientTransform="matrix(-1 0 0 -1 1107.8516 617.5742)">
			<stop  offset="0" style="stop-color:#FFFFFF"/>
			<stop  offset="1" style="stop-color:#5380C1"/>
		</linearGradient>
		<path fill="url(#SVGID_55_)" d="M490.836,481.918c-3.174-11.228-7.646-21.983-12.928-32.238
			c-5.44-10.156-11.733-19.861-19.412-28.357c-7.594-8.579-16.767-15.604-26.779-21.007c-9.975-5.684-21.283-8.282-32.614-10.294
			l0.118,0.007c-7.472-0.326-14.939-0.592-22.392-1.085c7.453-0.497,14.92-0.764,22.392-1.089h0.03l0.064,0.01
			c11.582,1.436,23.64,3.231,34.106,9.147c10.48,5.457,20.428,12.508,28.014,21.691c7.746,8.969,14.253,18.964,19.054,29.72
			C485.343,459.117,489.056,470.369,490.836,481.918z"/>
	</g>
	<g>
		<linearGradient id="SVGID_56_" gradientUnits="userSpaceOnUse" x1="432.3271" y1="64.1128" x2="432.3271" y2="451.8832">
			<stop  offset="0" style="stop-color:#30358C"/>
			<stop  offset="0.6386" style="stop-color:#337CBF"/>
			<stop  offset="1" style="stop-color:#337CBF"/>
		</linearGradient>
		<path fill="url(#SVGID_56_)" d="M374.187,34.82l116.281,6.766v440.332H374.187V34.82z"/>
		<linearGradient id="SVGID_57_" gradientUnits="userSpaceOnUse" x1="561.9551" y1="70.3359" x2="531.0354" y2="215.4207">
			<stop  offset="0" style="stop-color:#20A3DD"/>
			<stop  offset="1" style="stop-color:#2857A4"/>
		</linearGradient>
		<path fill="url(#SVGID_57_)" d="M589.508,34.82h-72.387h-5.745H374.187c13.691,60.763,49.292,88.983,93.445,94.827l0,0H562.6
			c28.077,0,50.85,22.76,50.85,50.842c0,28.079-22.772,50.839-50.85,50.839h-72.132v69.042l116.874-0.313
			c30.453,0,59.688-11.952,81.426-33.292c27.276-21.703,43.17-54.659,43.17-89.515C731.938,98.593,668.165,34.82,589.508,34.82z"/>
		<linearGradient id="SVGID_58_" gradientUnits="userSpaceOnUse" x1="372.1084" y1="82.7871" x2="490.4676" y2="82.7871">
			<stop  offset="0" style="stop-color:#FFFFFF"/>
			<stop  offset="1" style="stop-color:#5380C1"/>
		</linearGradient>
		<path fill="url(#SVGID_58_)" d="M374.187,34.82c3.245,11.452,7.807,22.423,13.186,32.88c5.559,10.36,11.972,20.257,19.802,28.925
			c7.747,8.75,17.1,15.913,27.311,21.422c10.174,5.799,21.715,8.445,33.254,10.5l-0.107-0.007
			c7.618,0.331,15.227,0.605,22.836,1.108c-7.609,0.502-15.218,0.776-22.836,1.107h-0.039l-0.061-0.01
			c-11.823-1.461-24.107-3.297-34.777-9.328c-10.693-5.567-20.837-12.755-28.574-22.124c-7.897-9.146-14.537-19.341-19.43-30.311
			C379.788,58.077,376.012,46.6,374.187,34.82z"/>
	</g>
</g>
<g id="Layer_4" display="none">
	<g display="inline">
		<linearGradient id="SVGID_59_" gradientUnits="userSpaceOnUse" x1="460.8486" y1="222.9595" x2="458.7855" y2="343.4458">
			<stop  offset="0" style="stop-color:#30358C"/>
			<stop  offset="0.6386" style="stop-color:#337CBF"/>
			<stop  offset="1" style="stop-color:#337CBF"/>
		</linearGradient>
		<path fill="url(#SVGID_59_)" d="M425.1,187.931h70.276v141.451H425.1V187.931z"/>
		<linearGradient id="SVGID_60_" gradientUnits="userSpaceOnUse" x1="466.9707" y1="218.1636" x2="365.9747" y2="45.852">
			<stop  offset="0" style="stop-color:#30358C"/>
			<stop  offset="0.6386" style="stop-color:#337CBF"/>
			<stop  offset="1" style="stop-color:#337CBF"/>
		</linearGradient>
		<polygon fill="url(#SVGID_60_)" points="342.07,60.316 431.182,221.431 493.069,203.321 412.157,60.316 		"/>
		<linearGradient id="SVGID_61_" gradientUnits="userSpaceOnUse" x1="515.5908" y1="200.9297" x2="437.8137" y2="92.6602">
			<stop  offset="0" style="stop-color:#337CBF"/>
			<stop  offset="0.8057" style="stop-color:#3FA5DD"/>
			<stop  offset="1" style="stop-color:#42AFE4"/>
		</linearGradient>
		<path fill="url(#SVGID_61_)" d="M579.184,60.316h-70.086l-41.584,95.133c0,0-21.871,48.275-32.087,55.745
			c-5.384,3.945-9.098,0.704-9.098,0.704c-0.26-0.175-0.46-0.339-0.561-0.439c-0.229-0.339-0.449-0.684-0.669-1.029l0.22,93.975
			c27.024,17.946,49.464-50.517,66.691-83.668c5.303-10.201,9.576-18.29,15.08-28.382L579.184,60.316z"/>
		<linearGradient id="SVGID_62_" gradientUnits="userSpaceOnUse" x1="423.9814" y1="136.9287" x2="510.2768" y2="136.9287">
			<stop  offset="0" style="stop-color:#FFFFFF"/>
			<stop  offset="1" style="stop-color:#5380C1"/>
		</linearGradient>
		<path fill="url(#SVGID_62_)" d="M509.098,60.316c-10.126,25.891-20.912,51.521-32.396,76.842
			c-5.692,12.683-11.625,25.266-17.886,37.694c-3.127,6.212-6.313,12.399-9.707,18.491c-1.738,3.025-3.486,6.042-5.394,8.978
			c-1.927,2.931-3.805,5.882-6.531,8.403l0.051-0.045c-1.379,1.189-2.867,2.112-4.595,2.582c-1.697,0.47-3.585,0.36-5.133-0.424
			l0.049,0.016c-1.218-0.424-1.967-1.404-2.456-2.422c0.6,0.944,1.528,1.773,2.536,1.973h0.021l0.03,0.015
			c3.135,1.094,6.311-0.739,8.429-2.836l0.05-0.045c2.327-2.272,4.195-5.283,5.973-8.199c1.797-2.941,3.455-5.982,5.093-9.028
			c3.295-6.087,6.432-12.279,9.486-18.5c6.092-12.468,11.926-25.066,17.807-37.645L509.098,60.316z"/>
		<linearGradient id="SVGID_63_" gradientUnits="userSpaceOnUse" x1="424.2012" y1="260.5195" x2="496.55" y2="260.5195">
			<stop  offset="0" style="stop-color:#FFFFFF"/>
			<stop  offset="1" style="stop-color:#5380C1"/>
		</linearGradient>
		<path fill="url(#SVGID_63_)" d="M495.376,213.137c-6.152,16.074-13.263,31.772-21.161,47.087
			c-3.926,7.67-8.159,15.189-12.754,22.5c-4.644,7.265-9.526,14.53-16.198,20.327l0.051-0.05c-2.198,1.968-4.654,3.496-7.441,4.345
			c-2.775,0.843-5.862,0.753-8.458-0.464l0.05,0.019c-1.998-0.624-3.295-2.262-4.145-3.948c0.979,1.612,2.507,3.016,4.244,3.435
			l0.031,0.005l0.019,0.01c2.567,0.969,5.394,0.83,7.9-0.129c2.477-0.984,4.822-2.512,6.681-4.37l0.05-0.05
			c3.026-2.926,5.713-6.202,8.158-9.691c2.497-3.45,4.804-7.041,7.071-10.671c4.395-7.336,8.529-14.846,12.633-22.381
			C480.087,243.931,487.776,228.571,495.376,213.137z"/>
	</g>
</g>
</svg>
